<?xml version="1.0" standalone="no"?>
<!DOCTYPE svg PUBLIC "-//W3C//DTD SVG 20010904//EN"
 "http://www.w3.org/TR/2001/REC-SVG-20010904/DTD/svg10.dtd">
<svg version="1.0" xmlns="http://www.w3.org/2000/svg"
 width="100.000000pt" height="100.000000pt" viewBox="0 0 100.000000 100.000000"
 preserveAspectRatio="xMidYMid meet">
<metadata>
Created by potrace 1.11, written by Peter Selinger 2001-2013
</metadata>
<g transform="translate(0.000000,100.000000) scale(0.100000,-0.100000)"
fill="#000000" stroke="none">
<path d="M800 875 c-26 -32 13 -81 48 -59 34 22 22 74 -18 74 -10 0 -23 -7
-30 -15z"/>
<path d="M760 870 c0 -5 5 -10 10 -10 6 0 10 5 10 10 0 6 -4 10 -10 10 -5 0
-10 -4 -10 -10z"/>
<path d="M854 769 c-10 -17 13 -36 27 -22 12 12 4 33 -11 33 -5 0 -12 -5 -16
-11z"/>
<path d="M582 691 c-22 -16 -43 -34 -46 -40 -4 -5 -64 -28 -135 -50 -118 -38
-130 -43 -141 -71 -12 -28 -11 -33 14 -59 18 -19 26 -38 26 -63 0 -33 3 -36
34 -42 34 -7 46 -21 46 -57 0 -15 7 -19 37 -19 26 0 45 -8 64 -26 26 -25 31
-26 59 -14 28 12 33 23 71 144 34 108 48 138 80 173 48 52 50 84 10 124 -37
37 -67 37 -119 0z m103 -16 c27 -26 30 -41 15 -65 -8 -12 -17 -8 -52 28 -36
35 -40 44 -28 52 24 15 39 12 65 -15z m-145 -64 c0 -7 -189 -123 -222 -136
-23 -9 -52 30 -40 52 13 23 142 67 156 53 14 -14 26 -12 20 3 -3 9 7 18 28 24
43 14 58 15 58 4z m30 -29 c0 -5 -13 -21 -28 -36 -27 -25 -30 -26 -43 -10 -9
12 -10 18 -3 21 6 2 20 10 30 18 21 16 44 19 44 7z m30 -32 c0 -9 -19 -44 -37
-69 -1 -2 -10 2 -18 9 -14 12 -13 16 11 42 29 29 44 35 44 18z m-161 -106
c-46 -47 -71 -64 -90 -64 -23 0 -27 5 -31 36 -4 35 -3 36 76 83 78 46 81 47
95 28 12 -17 8 -25 -50 -83z m191 80 c0 -20 -24 -84 -32 -84 -18 0 -19 30 -2
59 17 28 34 41 34 25z m-90 -49 c10 -12 5 -26 -23 -77 -54 -96 -57 -99 -92
-90 -53 14 -46 46 26 118 35 35 66 64 70 64 4 0 12 -7 19 -15z m37 -130 c-28
-82 -47 -99 -78 -68 l-22 21 44 76 c42 72 45 74 62 58 16 -17 16 -21 -6 -87z"/>
<path d="M491 429 c-18 -22 -31 -42 -29 -45 3 -2 19 14 37 37 18 22 31 42 29
45 -3 2 -19 -14 -37 -37z"/>
<path d="M419 338 c-12 -23 -12 -23 10 -4 23 21 26 26 11 26 -5 0 -15 -10 -21
-22z"/>
<path d="M570 399 c-7 -11 -10 -23 -7 -25 2 -2 9 7 15 21 14 30 7 33 -8 4z"/>
<path d="M527 315 c-10 -21 -16 -40 -13 -42 7 -7 38 56 34 68 -2 6 -11 -6 -21
-26z"/>
<path d="M126 394 c-9 -8 -16 -19 -16 -24 0 -11 29 -40 40 -40 11 0 40 29 40
40 0 11 -29 40 -40 40 -5 0 -16 -7 -24 -16z"/>
<path d="M794 249 c-10 -17 13 -36 27 -22 12 12 4 33 -11 33 -5 0 -12 -5 -16
-11z"/>
<path d="M234 139 c-10 -17 13 -36 27 -22 12 12 4 33 -11 33 -5 0 -12 -5 -16
-11z"/>
</g>
</svg>
